<svg xmlns="http://www.w3.org/2000/svg" width="25" height="25" viewBox="0 0 25 25">
  <g id="组_40" data-name="组 40" transform="translate(-721 -1322)">
    <rect id="矩形_68" data-name="矩形 68" width="25" height="25" transform="translate(721 1322)" fill="#fff" opacity="0.01"/>
    <path id="shengyin" d="M90.274,185.457l6.187-3.89a1.526,1.526,0,0,1,2.109.49,1.546,1.546,0,0,1,.233.816v16.254a1.529,1.529,0,0,1-2.342,1.306l-6.187-3.89h-2.8a2.149,2.149,0,0,1-2.143-2.156v-6.774a2.149,2.149,0,0,1,2.143-2.156h2.8Zm.75,1.707a.915.915,0,0,1-.487.14H87.476a.307.307,0,0,0-.306.308v6.774a.307.307,0,0,0,.306.308h3.061a.916.916,0,0,1,.487.14l5.942,3.735V183.429l-5.942,3.736Zm14.847,13.122a.915.915,0,0,1-1.3-.022.927.927,0,0,1,.022-1.307,11.027,11.027,0,0,0,0-15.916.921.921,0,0,1,1.277-1.328,12.882,12.882,0,0,1,0,18.573ZM102.8,196.6a.915.915,0,0,1-1.3-.036.928.928,0,0,1,.036-1.306,5.808,5.808,0,0,0,0-8.512A.921.921,0,0,1,102.8,185.4a7.663,7.663,0,0,1,0,11.2Z" transform="translate(635.86 1143.667)" fill="#666"/>
  </g>
</svg>
